{
	"asset":{
		"version":"2.0",
		"generator":"Created using the official Cinema 4D glTF Exporter 1.000x287526"
	},
	"scenes":[{
		"nodes":[0]
	}],
	"nodes":[{
		"name":"立方体",
		"translation":[-2.1316281596346973e-16,
		-0.02014106698334217,
		0.0],
		"rotation":[0.0,
		0.0,
		0.0,
		-1.0],
		"scale":[1.0,
		1.0,
		1.0],
		"mesh":0
	}],
	"meshes":[{
		"primitives":[{
			"attributes":{
				"POSITION":1,
				"NORMAL":2,
				"TEXCOORD_0":3
			},
			"indices":0,
			"material":0
		}]
	}],
	"accessors":[{
		"bufferView":0,
		"min":[0],
		"type":"SCALAR",
		"max":[10967],
		"componentType":5123,
		"count":25017,
		"byteOffset":0
	},
	{
		"bufferView":1,
		"min":[-0.4749999940395355,
		-0.02014106698334217,
		-0.4749999940395355],
		"type":"VEC3",
		"max":[0.4749999940395355,
		0.02014106698334217,
		0.4749999940395355],
		"componentType":5126,
		"count":10968,
		"byteOffset":0
	},
	{
		"bufferView":1,
		"min":[-1.0,
		-1.0,
		-1.0],
		"type":"VEC3",
		"max":[1.0,
		1.0,
		1.0],
		"componentType":5126,
		"count":10968,
		"byteOffset":12
	},
	{
		"bufferView":1,
		"min":[0.005127982702106237,
		0.00512798223644495],
		"type":"VEC2",
		"max":[0.9927231073379517,
		0.994871973991394],
		"componentType":5126,
		"count":10968,
		"byteOffset":24
	}],
	"bufferViews":[{
		"buffer":0,
		"byteOffset":0,
		"byteLength":50034,
		"target":34963
	},
	{
		"buffer":0,
		"byteOffset":50036,
		"byteLength":350976,
		"target":34962,
		"byteStride":32
	}],
	"buffers":[{
		"uri":"data:application/octet-stream;base64,",
		"byteLength":401012
	}],
	"images":[{
		"uri":"data:image/jpeg;base64,"
	}],
	"samplers":[{
		"magFilter":9729,
		"minFilter":9729,
		"wrapS":10497,
		"wrapT":10497
	}],
	"textures":[{
		"sampler":0,
		"source":0
	}],
	"materials":[{
		"pbrMetallicRoughness":{
			"baseColorTexture":{
				"index":0
			},
			"baseColorFactor":[1.0,
			1.0,
			1.0,
			1.0],
			"metallicFactor":0.13,
			"roughnessFactor":0.3
		},
		"emissiveFactor":[0.0,
		0.0,
		0.0],
		"alphaMode":"OPAQUE",
		"doubleSided":true,
		"name":"PBR"
	}]
}